<?xml version="1.0" standalone="no"?>
<svg viewBox="0 0 200 200" xmlns="http://www.w3.org/2000/svg">
  <path fill="#FF0066" d="M22.3,-37.5C34.7,-31.4,54.7,-37.3,67.2,-33C79.6,-28.7,84.6,-14.4,80.2,-2.5C75.8,9.3,62.1,18.6,53.6,29.8C45.1,40.9,41.9,53.9,33.8,55.9C25.8,57.9,12.9,48.8,3.2,43.3C-6.6,37.9,-13.1,36,-21.3,34.1C-29.4,32.1,-39.1,30.1,-46.8,24.4C-54.6,18.8,-60.4,9.4,-56.8,2.1C-53.2,-5.2,-40.2,-10.5,-34.3,-19.3C-28.4,-28.2,-29.5,-40.7,-25,-51.3C-20.5,-62,-10.2,-70.8,-2.7,-66.2C4.9,-61.6,9.8,-43.6,22.3,-37.5Z" transform="translate(100 100)" />
</svg>
